<mxfile host="app.diagrams.net" modified="2024-04-18T18:54:37.293Z" agent="Mozilla/5.0 (X11; Linux x86_64; rv:108.0) Gecko/20100101 Firefox/108.0" etag="kh1T0m6IQkxlAV7Dk8sq" version="24.2.5" type="device">
  <diagram id="C5RBs43oDa-KdzZeNtuy" name="Page-1">
    <mxGraphModel dx="864" dy="468" grid="1" gridSize="10" guides="1" tooltips="1" connect="1" arrows="1" fold="1" page="1" pageScale="1" pageWidth="827" pageHeight="1169" math="0" shadow="0">
      <root>
        <mxCell id="WIyWlLk6GJQsqaUBKTNV-0" />
        <mxCell id="WIyWlLk6GJQsqaUBKTNV-1" parent="WIyWlLk6GJQsqaUBKTNV-0" />
        <mxCell id="Vt8at7Qw69P0yqrknlAN-43" value="" style="rounded=1;whiteSpace=wrap;html=1;fillColor=none;" vertex="1" parent="WIyWlLk6GJQsqaUBKTNV-1">
          <mxGeometry x="23" y="370" width="597" height="215" as="geometry" />
        </mxCell>
        <mxCell id="Vt8at7Qw69P0yqrknlAN-0" value="" style="rounded=1;whiteSpace=wrap;html=1;fillColor=#d5e8d4;strokeColor=#82b366;" vertex="1" parent="WIyWlLk6GJQsqaUBKTNV-1">
          <mxGeometry x="80" y="445" width="120" height="60" as="geometry" />
        </mxCell>
        <mxCell id="Vt8at7Qw69P0yqrknlAN-1" value="" style="endArrow=none;html=1;rounded=0;entryX=1;entryY=0.25;entryDx=0;entryDy=0;exitX=0;exitY=0.25;exitDx=0;exitDy=0;fillColor=#d5e8d4;strokeColor=#82b366;movable=1;resizable=1;rotatable=1;deletable=1;editable=1;locked=0;connectable=1;" edge="1" parent="WIyWlLk6GJQsqaUBKTNV-1" source="Vt8at7Qw69P0yqrknlAN-0" target="Vt8at7Qw69P0yqrknlAN-0">
          <mxGeometry width="50" height="50" relative="1" as="geometry">
            <mxPoint x="100" y="205" as="sourcePoint" />
            <mxPoint x="150" y="155" as="targetPoint" />
          </mxGeometry>
        </mxCell>
        <mxCell id="Vt8at7Qw69P0yqrknlAN-2" value="&lt;font style=&quot;font-size: 7px;&quot;&gt;GET&lt;/font&gt;" style="text;html=1;align=center;verticalAlign=middle;whiteSpace=wrap;rounded=0;perimeterSpacing=1;" vertex="1" parent="WIyWlLk6GJQsqaUBKTNV-1">
          <mxGeometry x="81" y="445" width="20" height="10" as="geometry" />
        </mxCell>
        <mxCell id="Vt8at7Qw69P0yqrknlAN-3" value="&lt;font style=&quot;font-size: 4px;&quot;&gt;&lt;i&gt;all courses&lt;/i&gt;&lt;/font&gt;" style="text;html=1;align=center;verticalAlign=middle;whiteSpace=wrap;rounded=0;movable=1;resizable=1;rotatable=1;deletable=1;editable=1;locked=0;connectable=1;" vertex="1" parent="WIyWlLk6GJQsqaUBKTNV-1">
          <mxGeometry x="78" y="455" width="30" as="geometry" />
        </mxCell>
        <mxCell id="Vt8at7Qw69P0yqrknlAN-6" value="&lt;i&gt;&lt;font style=&quot;font-size: 5px;&quot;&gt;/api/courses&lt;/font&gt;&lt;/i&gt;" style="text;html=1;align=center;verticalAlign=middle;whiteSpace=wrap;rounded=0;movable=1;resizable=1;rotatable=1;deletable=1;editable=1;locked=0;connectable=1;" vertex="1" parent="WIyWlLk6GJQsqaUBKTNV-1">
          <mxGeometry x="125" y="450" width="30" as="geometry" />
        </mxCell>
        <mxCell id="Vt8at7Qw69P0yqrknlAN-8" value="" style="shape=flexArrow;endArrow=classic;html=1;rounded=0;endWidth=5.9453032104637344;endSize=1.395402298850575;width=4.137931034482759;movable=1;resizable=1;rotatable=1;deletable=1;editable=1;locked=0;connectable=1;" edge="1" parent="WIyWlLk6GJQsqaUBKTNV-1">
          <mxGeometry width="50" height="50" relative="1" as="geometry">
            <mxPoint x="97.89" y="502" as="sourcePoint" />
            <mxPoint x="97.89" y="487" as="targetPoint" />
          </mxGeometry>
        </mxCell>
        <mxCell id="Vt8at7Qw69P0yqrknlAN-10" value="" style="shape=flexArrow;endArrow=classic;html=1;rounded=0;endWidth=5.9453032104637344;endSize=1.395402298850575;width=4.137931034482759;movable=1;resizable=1;rotatable=1;deletable=1;editable=1;locked=0;connectable=1;" edge="1" parent="WIyWlLk6GJQsqaUBKTNV-1">
          <mxGeometry width="50" height="50" relative="1" as="geometry">
            <mxPoint x="175" y="487" as="sourcePoint" />
            <mxPoint x="175" y="502" as="targetPoint" />
          </mxGeometry>
        </mxCell>
        <mxCell id="Vt8at7Qw69P0yqrknlAN-15" value="&lt;font style=&quot;font-size: 7px;&quot;&gt;Nothing&lt;/font&gt;" style="ellipse;whiteSpace=wrap;html=1;" vertex="1" parent="WIyWlLk6GJQsqaUBKTNV-1">
          <mxGeometry x="78" y="600" width="40" height="20" as="geometry" />
        </mxCell>
        <mxCell id="Vt8at7Qw69P0yqrknlAN-16" style="edgeStyle=orthogonalEdgeStyle;rounded=0;orthogonalLoop=1;jettySize=auto;html=1;entryX=0.146;entryY=0.997;entryDx=0;entryDy=0;entryPerimeter=0;" edge="1" parent="WIyWlLk6GJQsqaUBKTNV-1" source="Vt8at7Qw69P0yqrknlAN-15" target="Vt8at7Qw69P0yqrknlAN-0">
          <mxGeometry relative="1" as="geometry" />
        </mxCell>
        <mxCell id="Vt8at7Qw69P0yqrknlAN-17" value="&lt;font style=&quot;font-size: 6px;&quot;&gt;all courses&lt;br&gt;&lt;/font&gt;" style="ellipse;whiteSpace=wrap;html=1;fillColor=#60a917;fontColor=#ffffff;strokeColor=#2D7600;" vertex="1" parent="WIyWlLk6GJQsqaUBKTNV-1">
          <mxGeometry x="155" y="600" width="40" height="20" as="geometry" />
        </mxCell>
        <mxCell id="Vt8at7Qw69P0yqrknlAN-18" style="edgeStyle=orthogonalEdgeStyle;rounded=0;orthogonalLoop=1;jettySize=auto;html=1;exitX=0.5;exitY=0;exitDx=0;exitDy=0;entryX=0.792;entryY=1.02;entryDx=0;entryDy=0;entryPerimeter=0;startArrow=classic;startFill=1;endArrow=none;endFill=0;fillColor=#60a917;strokeColor=#2D7600;" edge="1" parent="WIyWlLk6GJQsqaUBKTNV-1" source="Vt8at7Qw69P0yqrknlAN-17" target="Vt8at7Qw69P0yqrknlAN-0">
          <mxGeometry relative="1" as="geometry" />
        </mxCell>
        <mxCell id="Vt8at7Qw69P0yqrknlAN-53" value="200" style="edgeLabel;html=1;align=center;verticalAlign=middle;resizable=0;points=[];" vertex="1" connectable="0" parent="Vt8at7Qw69P0yqrknlAN-18">
          <mxGeometry x="0.3066" relative="1" as="geometry">
            <mxPoint as="offset" />
          </mxGeometry>
        </mxCell>
        <mxCell id="Vt8at7Qw69P0yqrknlAN-49" style="edgeStyle=orthogonalEdgeStyle;rounded=0;orthogonalLoop=1;jettySize=auto;html=1;exitX=0.931;exitY=1.016;exitDx=0;exitDy=0;exitPerimeter=0;fillColor=#fa6800;strokeColor=#C73500;" edge="1" parent="WIyWlLk6GJQsqaUBKTNV-1" source="Vt8at7Qw69P0yqrknlAN-19" target="Vt8at7Qw69P0yqrknlAN-46">
          <mxGeometry relative="1" as="geometry" />
        </mxCell>
        <mxCell id="Vt8at7Qw69P0yqrknlAN-51" value="404" style="edgeLabel;html=1;align=center;verticalAlign=middle;resizable=0;points=[];" vertex="1" connectable="0" parent="Vt8at7Qw69P0yqrknlAN-49">
          <mxGeometry x="-0.3561" relative="1" as="geometry">
            <mxPoint as="offset" />
          </mxGeometry>
        </mxCell>
        <mxCell id="Vt8at7Qw69P0yqrknlAN-50" style="edgeStyle=orthogonalEdgeStyle;rounded=0;orthogonalLoop=1;jettySize=auto;html=1;exitX=0.64;exitY=1.025;exitDx=0;exitDy=0;exitPerimeter=0;fillColor=#60a917;strokeColor=#2D7600;" edge="1" parent="WIyWlLk6GJQsqaUBKTNV-1" source="Vt8at7Qw69P0yqrknlAN-19" target="Vt8at7Qw69P0yqrknlAN-29">
          <mxGeometry relative="1" as="geometry" />
        </mxCell>
        <mxCell id="Vt8at7Qw69P0yqrknlAN-52" value="200" style="edgeLabel;html=1;align=center;verticalAlign=middle;resizable=0;points=[];" vertex="1" connectable="0" parent="Vt8at7Qw69P0yqrknlAN-50">
          <mxGeometry x="-0.1047" y="-1" relative="1" as="geometry">
            <mxPoint as="offset" />
          </mxGeometry>
        </mxCell>
        <mxCell id="Vt8at7Qw69P0yqrknlAN-19" value="" style="rounded=1;whiteSpace=wrap;html=1;fillColor=#d5e8d4;strokeColor=#82b366;" vertex="1" parent="WIyWlLk6GJQsqaUBKTNV-1">
          <mxGeometry x="253" y="445" width="120" height="60" as="geometry" />
        </mxCell>
        <mxCell id="Vt8at7Qw69P0yqrknlAN-20" value="" style="endArrow=none;html=1;rounded=0;entryX=1;entryY=0.25;entryDx=0;entryDy=0;exitX=0;exitY=0.25;exitDx=0;exitDy=0;fillColor=#d5e8d4;strokeColor=#82b366;movable=1;resizable=1;rotatable=1;deletable=1;editable=1;locked=0;connectable=1;" edge="1" parent="WIyWlLk6GJQsqaUBKTNV-1" source="Vt8at7Qw69P0yqrknlAN-19" target="Vt8at7Qw69P0yqrknlAN-19">
          <mxGeometry width="50" height="50" relative="1" as="geometry">
            <mxPoint x="70" y="475" as="sourcePoint" />
            <mxPoint x="120" y="425" as="targetPoint" />
          </mxGeometry>
        </mxCell>
        <mxCell id="Vt8at7Qw69P0yqrknlAN-21" value="&lt;font style=&quot;font-size: 7px;&quot;&gt;GET&lt;/font&gt;" style="text;html=1;align=center;verticalAlign=middle;whiteSpace=wrap;rounded=0;perimeterSpacing=1;" vertex="1" parent="WIyWlLk6GJQsqaUBKTNV-1">
          <mxGeometry x="253" y="445" width="20" height="10" as="geometry" />
        </mxCell>
        <mxCell id="Vt8at7Qw69P0yqrknlAN-22" value="&lt;font style=&quot;font-size: 4px;&quot;&gt;&lt;i&gt;course by code&lt;br&gt;&lt;/i&gt;&lt;/font&gt;" style="text;html=1;align=center;verticalAlign=middle;whiteSpace=wrap;rounded=0;movable=1;resizable=1;rotatable=1;deletable=1;editable=1;locked=0;connectable=1;" vertex="1" parent="WIyWlLk6GJQsqaUBKTNV-1">
          <mxGeometry x="255" y="455" width="30" as="geometry" />
        </mxCell>
        <mxCell id="Vt8at7Qw69P0yqrknlAN-23" value="&lt;i&gt;&lt;font style=&quot;font-size: 5px;&quot;&gt;/api/courses/{code}&lt;/font&gt;&lt;/i&gt;" style="text;html=1;align=center;verticalAlign=middle;whiteSpace=wrap;rounded=0;movable=1;resizable=1;rotatable=1;deletable=1;editable=1;locked=0;connectable=1;" vertex="1" parent="WIyWlLk6GJQsqaUBKTNV-1">
          <mxGeometry x="290" y="450" width="53" as="geometry" />
        </mxCell>
        <mxCell id="Vt8at7Qw69P0yqrknlAN-25" value="" style="shape=flexArrow;endArrow=classic;html=1;rounded=0;endWidth=5.9453032104637344;endSize=1.395402298850575;width=4.137931034482759;movable=1;resizable=1;rotatable=1;deletable=1;editable=1;locked=0;connectable=1;" edge="1" parent="WIyWlLk6GJQsqaUBKTNV-1">
          <mxGeometry width="50" height="50" relative="1" as="geometry">
            <mxPoint x="346.76" y="487" as="sourcePoint" />
            <mxPoint x="346.76" y="502" as="targetPoint" />
          </mxGeometry>
        </mxCell>
        <mxCell id="Vt8at7Qw69P0yqrknlAN-27" value="&lt;font style=&quot;font-size: 6px;&quot;&gt;&lt;font style=&quot;font-size: 6px;&quot;&gt;course code&lt;/font&gt;&lt;br&gt;&lt;/font&gt;" style="ellipse;whiteSpace=wrap;html=1;" vertex="1" parent="WIyWlLk6GJQsqaUBKTNV-1">
          <mxGeometry x="250" y="600" width="40" height="20" as="geometry" />
        </mxCell>
        <mxCell id="Vt8at7Qw69P0yqrknlAN-28" style="edgeStyle=orthogonalEdgeStyle;rounded=0;orthogonalLoop=1;jettySize=auto;html=1;entryX=0.146;entryY=0.997;entryDx=0;entryDy=0;entryPerimeter=0;" edge="1" parent="WIyWlLk6GJQsqaUBKTNV-1" source="Vt8at7Qw69P0yqrknlAN-27" target="Vt8at7Qw69P0yqrknlAN-19">
          <mxGeometry relative="1" as="geometry" />
        </mxCell>
        <mxCell id="Vt8at7Qw69P0yqrknlAN-29" value="&lt;p style=&quot;line-height: 120%; font-size: 4px;&quot;&gt;&lt;font style=&quot;font-size: 4px;&quot;&gt;course of code specified&lt;font style=&quot;font-size: 4px;&quot;&gt;&lt;br&gt;&lt;/font&gt;&lt;/font&gt;&lt;/p&gt;" style="ellipse;whiteSpace=wrap;html=1;fillColor=#60a917;fontColor=#ffffff;strokeColor=#2D7600;" vertex="1" parent="WIyWlLk6GJQsqaUBKTNV-1">
          <mxGeometry x="310" y="600" width="40" height="20" as="geometry" />
        </mxCell>
        <mxCell id="Vt8at7Qw69P0yqrknlAN-31" value="" style="shape=flexArrow;endArrow=classic;html=1;rounded=0;endWidth=5.9453032104637344;endSize=1.395402298850575;width=4.137931034482759;movable=1;resizable=1;rotatable=1;deletable=1;editable=1;locked=0;connectable=1;" edge="1" parent="WIyWlLk6GJQsqaUBKTNV-1">
          <mxGeometry width="50" height="50" relative="1" as="geometry">
            <mxPoint x="269.76" y="502" as="sourcePoint" />
            <mxPoint x="269.76" y="487" as="targetPoint" />
          </mxGeometry>
        </mxCell>
        <mxCell id="Vt8at7Qw69P0yqrknlAN-44" value="Course Domain" style="text;html=1;align=center;verticalAlign=middle;whiteSpace=wrap;rounded=0;" vertex="1" parent="WIyWlLk6GJQsqaUBKTNV-1">
          <mxGeometry x="540" y="380" width="60" height="30" as="geometry" />
        </mxCell>
        <mxCell id="Vt8at7Qw69P0yqrknlAN-46" value="&lt;font style=&quot;font-size: 6px;&quot;&gt;Not found&lt;/font&gt;" style="ellipse;whiteSpace=wrap;html=1;fillColor=#fa6800;fontColor=#000000;strokeColor=#C73500;" vertex="1" parent="WIyWlLk6GJQsqaUBKTNV-1">
          <mxGeometry x="344" y="626" width="40" height="20" as="geometry" />
        </mxCell>
        <mxCell id="Vt8at7Qw69P0yqrknlAN-54" style="edgeStyle=orthogonalEdgeStyle;rounded=0;orthogonalLoop=1;jettySize=auto;html=1;exitX=0.931;exitY=1.016;exitDx=0;exitDy=0;exitPerimeter=0;fillColor=#fa6800;strokeColor=#C73500;" edge="1" parent="WIyWlLk6GJQsqaUBKTNV-1" source="Vt8at7Qw69P0yqrknlAN-58" target="Vt8at7Qw69P0yqrknlAN-68">
          <mxGeometry relative="1" as="geometry" />
        </mxCell>
        <mxCell id="Vt8at7Qw69P0yqrknlAN-55" value="404" style="edgeLabel;html=1;align=center;verticalAlign=middle;resizable=0;points=[];" vertex="1" connectable="0" parent="Vt8at7Qw69P0yqrknlAN-54">
          <mxGeometry x="-0.3561" relative="1" as="geometry">
            <mxPoint as="offset" />
          </mxGeometry>
        </mxCell>
        <mxCell id="Vt8at7Qw69P0yqrknlAN-56" style="edgeStyle=orthogonalEdgeStyle;rounded=0;orthogonalLoop=1;jettySize=auto;html=1;exitX=0.64;exitY=1.025;exitDx=0;exitDy=0;exitPerimeter=0;fillColor=#60a917;strokeColor=#2D7600;" edge="1" parent="WIyWlLk6GJQsqaUBKTNV-1" source="Vt8at7Qw69P0yqrknlAN-58" target="Vt8at7Qw69P0yqrknlAN-66">
          <mxGeometry relative="1" as="geometry" />
        </mxCell>
        <mxCell id="Vt8at7Qw69P0yqrknlAN-57" value="200" style="edgeLabel;html=1;align=center;verticalAlign=middle;resizable=0;points=[];" vertex="1" connectable="0" parent="Vt8at7Qw69P0yqrknlAN-56">
          <mxGeometry x="-0.1047" y="-1" relative="1" as="geometry">
            <mxPoint as="offset" />
          </mxGeometry>
        </mxCell>
        <mxCell id="Vt8at7Qw69P0yqrknlAN-58" value="" style="rounded=1;whiteSpace=wrap;html=1;fillColor=#d5e8d4;strokeColor=#82b366;" vertex="1" parent="WIyWlLk6GJQsqaUBKTNV-1">
          <mxGeometry x="433" y="445" width="120" height="60" as="geometry" />
        </mxCell>
        <mxCell id="Vt8at7Qw69P0yqrknlAN-59" value="" style="endArrow=none;html=1;rounded=0;entryX=1;entryY=0.25;entryDx=0;entryDy=0;exitX=0;exitY=0.25;exitDx=0;exitDy=0;fillColor=#d5e8d4;strokeColor=#82b366;movable=1;resizable=1;rotatable=1;deletable=1;editable=1;locked=0;connectable=1;" edge="1" parent="WIyWlLk6GJQsqaUBKTNV-1" source="Vt8at7Qw69P0yqrknlAN-58" target="Vt8at7Qw69P0yqrknlAN-58">
          <mxGeometry width="50" height="50" relative="1" as="geometry">
            <mxPoint x="250" y="475" as="sourcePoint" />
            <mxPoint x="300" y="425" as="targetPoint" />
          </mxGeometry>
        </mxCell>
        <mxCell id="Vt8at7Qw69P0yqrknlAN-60" value="&lt;font style=&quot;font-size: 7px;&quot;&gt;GET&lt;/font&gt;" style="text;html=1;align=center;verticalAlign=middle;whiteSpace=wrap;rounded=0;perimeterSpacing=1;" vertex="1" parent="WIyWlLk6GJQsqaUBKTNV-1">
          <mxGeometry x="433" y="445" width="20" height="10" as="geometry" />
        </mxCell>
        <mxCell id="Vt8at7Qw69P0yqrknlAN-61" value="&lt;p style=&quot;line-height: 20%; font-size: 3px;&quot;&gt;&lt;font style=&quot;font-size: 3px;&quot;&gt;&lt;i&gt;course opinion by code&lt;br&gt;&lt;/i&gt;&lt;/font&gt;&lt;/p&gt;" style="text;html=1;align=center;verticalAlign=middle;whiteSpace=wrap;rounded=0;movable=1;resizable=1;rotatable=1;deletable=1;editable=1;locked=0;connectable=1;" vertex="1" parent="WIyWlLk6GJQsqaUBKTNV-1">
          <mxGeometry x="434" y="457" width="36" as="geometry" />
        </mxCell>
        <mxCell id="Vt8at7Qw69P0yqrknlAN-62" value="&lt;p style=&quot;line-height: 20%;&quot;&gt;&lt;i&gt;&lt;font style=&quot;font-size: 5px;&quot;&gt;/api/courses/{code}/opinion&lt;/font&gt;&lt;/i&gt;&lt;/p&gt;" style="text;html=1;align=center;verticalAlign=middle;whiteSpace=wrap;rounded=0;movable=1;resizable=1;rotatable=1;deletable=1;editable=1;locked=0;connectable=1;" vertex="1" parent="WIyWlLk6GJQsqaUBKTNV-1">
          <mxGeometry x="459" y="450" width="73" as="geometry" />
        </mxCell>
        <mxCell id="Vt8at7Qw69P0yqrknlAN-63" value="" style="shape=flexArrow;endArrow=classic;html=1;rounded=0;endWidth=5.9453032104637344;endSize=1.395402298850575;width=4.137931034482759;movable=1;resizable=1;rotatable=1;deletable=1;editable=1;locked=0;connectable=1;" edge="1" parent="WIyWlLk6GJQsqaUBKTNV-1">
          <mxGeometry width="50" height="50" relative="1" as="geometry">
            <mxPoint x="526.76" y="487" as="sourcePoint" />
            <mxPoint x="526.76" y="502" as="targetPoint" />
          </mxGeometry>
        </mxCell>
        <mxCell id="Vt8at7Qw69P0yqrknlAN-64" value="&lt;font style=&quot;font-size: 6px;&quot;&gt;&lt;font style=&quot;font-size: 6px;&quot;&gt;course code&lt;/font&gt;&lt;br&gt;&lt;/font&gt;" style="ellipse;whiteSpace=wrap;html=1;" vertex="1" parent="WIyWlLk6GJQsqaUBKTNV-1">
          <mxGeometry x="430" y="600" width="40" height="20" as="geometry" />
        </mxCell>
        <mxCell id="Vt8at7Qw69P0yqrknlAN-65" style="edgeStyle=orthogonalEdgeStyle;rounded=0;orthogonalLoop=1;jettySize=auto;html=1;entryX=0.146;entryY=0.997;entryDx=0;entryDy=0;entryPerimeter=0;" edge="1" parent="WIyWlLk6GJQsqaUBKTNV-1" source="Vt8at7Qw69P0yqrknlAN-64" target="Vt8at7Qw69P0yqrknlAN-58">
          <mxGeometry relative="1" as="geometry" />
        </mxCell>
        <mxCell id="Vt8at7Qw69P0yqrknlAN-66" value="&lt;p style=&quot;line-height: 120%; font-size: 4px;&quot;&gt;&lt;font style=&quot;font-size: 4px;&quot;&gt;opinion of course of code specified&lt;font style=&quot;font-size: 4px;&quot;&gt;&lt;br&gt;&lt;/font&gt;&lt;/font&gt;&lt;/p&gt;" style="ellipse;whiteSpace=wrap;html=1;fillColor=#60a917;fontColor=#ffffff;strokeColor=#2D7600;" vertex="1" parent="WIyWlLk6GJQsqaUBKTNV-1">
          <mxGeometry x="490" y="600" width="40" height="20" as="geometry" />
        </mxCell>
        <mxCell id="Vt8at7Qw69P0yqrknlAN-67" value="" style="shape=flexArrow;endArrow=classic;html=1;rounded=0;endWidth=5.9453032104637344;endSize=1.395402298850575;width=4.137931034482759;movable=1;resizable=1;rotatable=1;deletable=1;editable=1;locked=0;connectable=1;" edge="1" parent="WIyWlLk6GJQsqaUBKTNV-1">
          <mxGeometry width="50" height="50" relative="1" as="geometry">
            <mxPoint x="449.76" y="502" as="sourcePoint" />
            <mxPoint x="449.76" y="487" as="targetPoint" />
          </mxGeometry>
        </mxCell>
        <mxCell id="Vt8at7Qw69P0yqrknlAN-68" value="&lt;font style=&quot;font-size: 6px;&quot;&gt;Not found&lt;/font&gt;" style="ellipse;whiteSpace=wrap;html=1;fillColor=#fa6800;fontColor=#000000;strokeColor=#C73500;" vertex="1" parent="WIyWlLk6GJQsqaUBKTNV-1">
          <mxGeometry x="524" y="626" width="40" height="20" as="geometry" />
        </mxCell>
        <mxCell id="Vt8at7Qw69P0yqrknlAN-69" value="" style="rounded=1;whiteSpace=wrap;html=1;fillColor=none;" vertex="1" parent="WIyWlLk6GJQsqaUBKTNV-1">
          <mxGeometry x="670" y="360" width="597" height="215" as="geometry" />
        </mxCell>
        <mxCell id="Vt8at7Qw69P0yqrknlAN-70" value="" style="rounded=1;whiteSpace=wrap;html=1;fillColor=#d5e8d4;strokeColor=#82b366;" vertex="1" parent="WIyWlLk6GJQsqaUBKTNV-1">
          <mxGeometry x="727" y="435" width="120" height="60" as="geometry" />
        </mxCell>
        <mxCell id="Vt8at7Qw69P0yqrknlAN-71" value="" style="endArrow=none;html=1;rounded=0;entryX=1;entryY=0.25;entryDx=0;entryDy=0;exitX=0;exitY=0.25;exitDx=0;exitDy=0;fillColor=#d5e8d4;strokeColor=#82b366;movable=1;resizable=1;rotatable=1;deletable=1;editable=1;locked=0;connectable=1;" edge="1" parent="WIyWlLk6GJQsqaUBKTNV-1" source="Vt8at7Qw69P0yqrknlAN-70" target="Vt8at7Qw69P0yqrknlAN-70">
          <mxGeometry width="50" height="50" relative="1" as="geometry">
            <mxPoint x="747" y="195" as="sourcePoint" />
            <mxPoint x="797" y="145" as="targetPoint" />
          </mxGeometry>
        </mxCell>
        <mxCell id="Vt8at7Qw69P0yqrknlAN-72" value="&lt;font style=&quot;font-size: 7px;&quot;&gt;GET&lt;/font&gt;" style="text;html=1;align=center;verticalAlign=middle;whiteSpace=wrap;rounded=0;perimeterSpacing=1;" vertex="1" parent="WIyWlLk6GJQsqaUBKTNV-1">
          <mxGeometry x="728" y="435" width="20" height="10" as="geometry" />
        </mxCell>
        <mxCell id="Vt8at7Qw69P0yqrknlAN-73" value="&lt;p style=&quot;line-height: 30%; font-size: 3px;&quot;&gt;&lt;font style=&quot;font-size: 3px;&quot;&gt;subjects by course&lt;/font&gt;&lt;/p&gt;" style="text;html=1;align=center;verticalAlign=middle;whiteSpace=wrap;rounded=0;movable=1;resizable=1;rotatable=1;deletable=1;editable=1;locked=0;connectable=1;" vertex="1" parent="WIyWlLk6GJQsqaUBKTNV-1">
          <mxGeometry x="729" y="447" width="30" as="geometry" />
        </mxCell>
        <mxCell id="Vt8at7Qw69P0yqrknlAN-74" value="&lt;p style=&quot;line-height: 40%; font-size: 5px;&quot;&gt;&lt;i&gt;&lt;font style=&quot;font-size: 5px;&quot;&gt;/api/subjects/{courseCode}&lt;/font&gt;&lt;/i&gt;&lt;/p&gt;" style="text;html=1;align=center;verticalAlign=middle;whiteSpace=wrap;rounded=0;movable=1;resizable=1;rotatable=1;deletable=1;editable=1;locked=0;connectable=1;" vertex="1" parent="WIyWlLk6GJQsqaUBKTNV-1">
          <mxGeometry x="750" y="442" width="78" as="geometry" />
        </mxCell>
        <mxCell id="Vt8at7Qw69P0yqrknlAN-75" value="" style="shape=flexArrow;endArrow=classic;html=1;rounded=0;endWidth=5.9453032104637344;endSize=1.395402298850575;width=4.137931034482759;movable=1;resizable=1;rotatable=1;deletable=1;editable=1;locked=0;connectable=1;" edge="1" parent="WIyWlLk6GJQsqaUBKTNV-1">
          <mxGeometry width="50" height="50" relative="1" as="geometry">
            <mxPoint x="744.89" y="492" as="sourcePoint" />
            <mxPoint x="744.89" y="477" as="targetPoint" />
          </mxGeometry>
        </mxCell>
        <mxCell id="Vt8at7Qw69P0yqrknlAN-76" value="" style="shape=flexArrow;endArrow=classic;html=1;rounded=0;endWidth=5.9453032104637344;endSize=1.395402298850575;width=4.137931034482759;movable=1;resizable=1;rotatable=1;deletable=1;editable=1;locked=0;connectable=1;" edge="1" parent="WIyWlLk6GJQsqaUBKTNV-1">
          <mxGeometry width="50" height="50" relative="1" as="geometry">
            <mxPoint x="822" y="477" as="sourcePoint" />
            <mxPoint x="822" y="492" as="targetPoint" />
          </mxGeometry>
        </mxCell>
        <mxCell id="Vt8at7Qw69P0yqrknlAN-77" value="&lt;p style=&quot;line-height: 110%;&quot;&gt;&lt;font style=&quot;font-size: 6px;&quot;&gt;Course code&lt;/font&gt;&lt;/p&gt;" style="ellipse;whiteSpace=wrap;html=1;" vertex="1" parent="WIyWlLk6GJQsqaUBKTNV-1">
          <mxGeometry x="725" y="590" width="40" height="20" as="geometry" />
        </mxCell>
        <mxCell id="Vt8at7Qw69P0yqrknlAN-78" style="edgeStyle=orthogonalEdgeStyle;rounded=0;orthogonalLoop=1;jettySize=auto;html=1;entryX=0.146;entryY=0.997;entryDx=0;entryDy=0;entryPerimeter=0;" edge="1" parent="WIyWlLk6GJQsqaUBKTNV-1" source="Vt8at7Qw69P0yqrknlAN-77" target="Vt8at7Qw69P0yqrknlAN-70">
          <mxGeometry relative="1" as="geometry" />
        </mxCell>
        <mxCell id="Vt8at7Qw69P0yqrknlAN-79" value="&lt;p style=&quot;line-height: 120%; font-size: 5px;&quot;&gt;&lt;font style=&quot;font-size: 5px;&quot;&gt;all subjects of course&lt;br&gt;&lt;/font&gt;&lt;/p&gt;" style="ellipse;whiteSpace=wrap;html=1;fillColor=#60a917;fontColor=#ffffff;strokeColor=#2D7600;" vertex="1" parent="WIyWlLk6GJQsqaUBKTNV-1">
          <mxGeometry x="802" y="590" width="40" height="20" as="geometry" />
        </mxCell>
        <mxCell id="Vt8at7Qw69P0yqrknlAN-80" style="edgeStyle=orthogonalEdgeStyle;rounded=0;orthogonalLoop=1;jettySize=auto;html=1;exitX=0.5;exitY=0;exitDx=0;exitDy=0;entryX=0.792;entryY=1.02;entryDx=0;entryDy=0;entryPerimeter=0;startArrow=classic;startFill=1;endArrow=none;endFill=0;fillColor=#60a917;strokeColor=#2D7600;" edge="1" parent="WIyWlLk6GJQsqaUBKTNV-1" source="Vt8at7Qw69P0yqrknlAN-79" target="Vt8at7Qw69P0yqrknlAN-70">
          <mxGeometry relative="1" as="geometry" />
        </mxCell>
        <mxCell id="Vt8at7Qw69P0yqrknlAN-81" value="200" style="edgeLabel;html=1;align=center;verticalAlign=middle;resizable=0;points=[];" vertex="1" connectable="0" parent="Vt8at7Qw69P0yqrknlAN-80">
          <mxGeometry x="0.3066" relative="1" as="geometry">
            <mxPoint as="offset" />
          </mxGeometry>
        </mxCell>
        <mxCell id="Vt8at7Qw69P0yqrknlAN-82" style="edgeStyle=orthogonalEdgeStyle;rounded=0;orthogonalLoop=1;jettySize=auto;html=1;exitX=0.931;exitY=1.016;exitDx=0;exitDy=0;exitPerimeter=0;fillColor=#fa6800;strokeColor=#C73500;" edge="1" parent="WIyWlLk6GJQsqaUBKTNV-1" source="Vt8at7Qw69P0yqrknlAN-86" target="Vt8at7Qw69P0yqrknlAN-97">
          <mxGeometry relative="1" as="geometry" />
        </mxCell>
        <mxCell id="Vt8at7Qw69P0yqrknlAN-83" value="404" style="edgeLabel;html=1;align=center;verticalAlign=middle;resizable=0;points=[];" vertex="1" connectable="0" parent="Vt8at7Qw69P0yqrknlAN-82">
          <mxGeometry x="-0.3561" relative="1" as="geometry">
            <mxPoint as="offset" />
          </mxGeometry>
        </mxCell>
        <mxCell id="Vt8at7Qw69P0yqrknlAN-84" style="edgeStyle=orthogonalEdgeStyle;rounded=0;orthogonalLoop=1;jettySize=auto;html=1;exitX=0.64;exitY=1.025;exitDx=0;exitDy=0;exitPerimeter=0;fillColor=#60a917;strokeColor=#2D7600;" edge="1" parent="WIyWlLk6GJQsqaUBKTNV-1" source="Vt8at7Qw69P0yqrknlAN-86" target="Vt8at7Qw69P0yqrknlAN-94">
          <mxGeometry relative="1" as="geometry" />
        </mxCell>
        <mxCell id="Vt8at7Qw69P0yqrknlAN-85" value="200" style="edgeLabel;html=1;align=center;verticalAlign=middle;resizable=0;points=[];" vertex="1" connectable="0" parent="Vt8at7Qw69P0yqrknlAN-84">
          <mxGeometry x="-0.1047" y="-1" relative="1" as="geometry">
            <mxPoint as="offset" />
          </mxGeometry>
        </mxCell>
        <mxCell id="Vt8at7Qw69P0yqrknlAN-86" value="" style="rounded=1;whiteSpace=wrap;html=1;fillColor=#d5e8d4;strokeColor=#82b366;" vertex="1" parent="WIyWlLk6GJQsqaUBKTNV-1">
          <mxGeometry x="900" y="435" width="120" height="60" as="geometry" />
        </mxCell>
        <mxCell id="Vt8at7Qw69P0yqrknlAN-87" value="" style="endArrow=none;html=1;rounded=0;entryX=1;entryY=0.25;entryDx=0;entryDy=0;exitX=0;exitY=0.25;exitDx=0;exitDy=0;fillColor=#d5e8d4;strokeColor=#82b366;movable=1;resizable=1;rotatable=1;deletable=1;editable=1;locked=0;connectable=1;" edge="1" parent="WIyWlLk6GJQsqaUBKTNV-1" source="Vt8at7Qw69P0yqrknlAN-86" target="Vt8at7Qw69P0yqrknlAN-86">
          <mxGeometry width="50" height="50" relative="1" as="geometry">
            <mxPoint x="717" y="465" as="sourcePoint" />
            <mxPoint x="767" y="415" as="targetPoint" />
          </mxGeometry>
        </mxCell>
        <mxCell id="Vt8at7Qw69P0yqrknlAN-88" value="&lt;font style=&quot;font-size: 7px;&quot;&gt;GET&lt;/font&gt;" style="text;html=1;align=center;verticalAlign=middle;whiteSpace=wrap;rounded=0;perimeterSpacing=1;" vertex="1" parent="WIyWlLk6GJQsqaUBKTNV-1">
          <mxGeometry x="900" y="435" width="20" height="10" as="geometry" />
        </mxCell>
        <mxCell id="Vt8at7Qw69P0yqrknlAN-89" value="&lt;font style=&quot;font-size: 4px;&quot;&gt;&lt;i&gt;subject by code&lt;br&gt;&lt;/i&gt;&lt;/font&gt;" style="text;html=1;align=center;verticalAlign=middle;whiteSpace=wrap;rounded=0;movable=1;resizable=1;rotatable=1;deletable=1;editable=1;locked=0;connectable=1;" vertex="1" parent="WIyWlLk6GJQsqaUBKTNV-1">
          <mxGeometry x="902" y="445" width="30" as="geometry" />
        </mxCell>
        <mxCell id="Vt8at7Qw69P0yqrknlAN-90" value="&lt;i&gt;&lt;font style=&quot;font-size: 5px;&quot;&gt;/api/subjects/{code}&lt;/font&gt;&lt;/i&gt;" style="text;html=1;align=center;verticalAlign=middle;whiteSpace=wrap;rounded=0;movable=1;resizable=1;rotatable=1;deletable=1;editable=1;locked=0;connectable=1;" vertex="1" parent="WIyWlLk6GJQsqaUBKTNV-1">
          <mxGeometry x="931" y="440" width="56" as="geometry" />
        </mxCell>
        <mxCell id="Vt8at7Qw69P0yqrknlAN-91" value="" style="shape=flexArrow;endArrow=classic;html=1;rounded=0;endWidth=5.9453032104637344;endSize=1.395402298850575;width=4.137931034482759;movable=1;resizable=1;rotatable=1;deletable=1;editable=1;locked=0;connectable=1;" edge="1" parent="WIyWlLk6GJQsqaUBKTNV-1">
          <mxGeometry width="50" height="50" relative="1" as="geometry">
            <mxPoint x="993.76" y="477" as="sourcePoint" />
            <mxPoint x="993.76" y="492" as="targetPoint" />
          </mxGeometry>
        </mxCell>
        <mxCell id="Vt8at7Qw69P0yqrknlAN-92" value="&lt;font style=&quot;font-size: 6px;&quot;&gt;&lt;font style=&quot;font-size: 6px;&quot;&gt;subject code&lt;/font&gt;&lt;br&gt;&lt;/font&gt;" style="ellipse;whiteSpace=wrap;html=1;" vertex="1" parent="WIyWlLk6GJQsqaUBKTNV-1">
          <mxGeometry x="897" y="590" width="40" height="20" as="geometry" />
        </mxCell>
        <mxCell id="Vt8at7Qw69P0yqrknlAN-93" style="edgeStyle=orthogonalEdgeStyle;rounded=0;orthogonalLoop=1;jettySize=auto;html=1;entryX=0.146;entryY=0.997;entryDx=0;entryDy=0;entryPerimeter=0;" edge="1" parent="WIyWlLk6GJQsqaUBKTNV-1" source="Vt8at7Qw69P0yqrknlAN-92" target="Vt8at7Qw69P0yqrknlAN-86">
          <mxGeometry relative="1" as="geometry" />
        </mxCell>
        <mxCell id="Vt8at7Qw69P0yqrknlAN-94" value="&lt;p style=&quot;line-height: 120%; font-size: 4px;&quot;&gt;&lt;font style=&quot;font-size: 4px;&quot;&gt;subject of code specified&lt;font style=&quot;font-size: 4px;&quot;&gt;&lt;br&gt;&lt;/font&gt;&lt;/font&gt;&lt;/p&gt;" style="ellipse;whiteSpace=wrap;html=1;fillColor=#60a917;fontColor=#ffffff;strokeColor=#2D7600;" vertex="1" parent="WIyWlLk6GJQsqaUBKTNV-1">
          <mxGeometry x="957" y="590" width="40" height="20" as="geometry" />
        </mxCell>
        <mxCell id="Vt8at7Qw69P0yqrknlAN-95" value="" style="shape=flexArrow;endArrow=classic;html=1;rounded=0;endWidth=5.9453032104637344;endSize=1.395402298850575;width=4.137931034482759;movable=1;resizable=1;rotatable=1;deletable=1;editable=1;locked=0;connectable=1;" edge="1" parent="WIyWlLk6GJQsqaUBKTNV-1">
          <mxGeometry width="50" height="50" relative="1" as="geometry">
            <mxPoint x="916.76" y="492" as="sourcePoint" />
            <mxPoint x="916.76" y="477" as="targetPoint" />
          </mxGeometry>
        </mxCell>
        <mxCell id="Vt8at7Qw69P0yqrknlAN-96" value="Subject Domain" style="text;html=1;align=center;verticalAlign=middle;whiteSpace=wrap;rounded=0;" vertex="1" parent="WIyWlLk6GJQsqaUBKTNV-1">
          <mxGeometry x="1187" y="370" width="60" height="30" as="geometry" />
        </mxCell>
        <mxCell id="Vt8at7Qw69P0yqrknlAN-97" value="&lt;font style=&quot;font-size: 6px;&quot;&gt;Not found&lt;/font&gt;" style="ellipse;whiteSpace=wrap;html=1;fillColor=#fa6800;fontColor=#000000;strokeColor=#C73500;" vertex="1" parent="WIyWlLk6GJQsqaUBKTNV-1">
          <mxGeometry x="991" y="616" width="40" height="20" as="geometry" />
        </mxCell>
        <mxCell id="Vt8at7Qw69P0yqrknlAN-98" style="edgeStyle=orthogonalEdgeStyle;rounded=0;orthogonalLoop=1;jettySize=auto;html=1;exitX=0.931;exitY=1.016;exitDx=0;exitDy=0;exitPerimeter=0;fillColor=#fa6800;strokeColor=#C73500;" edge="1" parent="WIyWlLk6GJQsqaUBKTNV-1" source="Vt8at7Qw69P0yqrknlAN-102" target="Vt8at7Qw69P0yqrknlAN-112">
          <mxGeometry relative="1" as="geometry" />
        </mxCell>
        <mxCell id="Vt8at7Qw69P0yqrknlAN-99" value="404" style="edgeLabel;html=1;align=center;verticalAlign=middle;resizable=0;points=[];" vertex="1" connectable="0" parent="Vt8at7Qw69P0yqrknlAN-98">
          <mxGeometry x="-0.3561" relative="1" as="geometry">
            <mxPoint as="offset" />
          </mxGeometry>
        </mxCell>
        <mxCell id="Vt8at7Qw69P0yqrknlAN-100" style="edgeStyle=orthogonalEdgeStyle;rounded=0;orthogonalLoop=1;jettySize=auto;html=1;exitX=0.64;exitY=1.025;exitDx=0;exitDy=0;exitPerimeter=0;fillColor=#60a917;strokeColor=#2D7600;" edge="1" parent="WIyWlLk6GJQsqaUBKTNV-1" source="Vt8at7Qw69P0yqrknlAN-102" target="Vt8at7Qw69P0yqrknlAN-110">
          <mxGeometry relative="1" as="geometry" />
        </mxCell>
        <mxCell id="Vt8at7Qw69P0yqrknlAN-101" value="200" style="edgeLabel;html=1;align=center;verticalAlign=middle;resizable=0;points=[];" vertex="1" connectable="0" parent="Vt8at7Qw69P0yqrknlAN-100">
          <mxGeometry x="-0.1047" y="-1" relative="1" as="geometry">
            <mxPoint as="offset" />
          </mxGeometry>
        </mxCell>
        <mxCell id="Vt8at7Qw69P0yqrknlAN-102" value="" style="rounded=1;whiteSpace=wrap;html=1;fillColor=#d5e8d4;strokeColor=#82b366;" vertex="1" parent="WIyWlLk6GJQsqaUBKTNV-1">
          <mxGeometry x="1080" y="435" width="120" height="60" as="geometry" />
        </mxCell>
        <mxCell id="Vt8at7Qw69P0yqrknlAN-103" value="" style="endArrow=none;html=1;rounded=0;entryX=1;entryY=0.25;entryDx=0;entryDy=0;exitX=0;exitY=0.25;exitDx=0;exitDy=0;fillColor=#d5e8d4;strokeColor=#82b366;movable=1;resizable=1;rotatable=1;deletable=1;editable=1;locked=0;connectable=1;" edge="1" parent="WIyWlLk6GJQsqaUBKTNV-1" source="Vt8at7Qw69P0yqrknlAN-102" target="Vt8at7Qw69P0yqrknlAN-102">
          <mxGeometry width="50" height="50" relative="1" as="geometry">
            <mxPoint x="897" y="465" as="sourcePoint" />
            <mxPoint x="947" y="415" as="targetPoint" />
          </mxGeometry>
        </mxCell>
        <mxCell id="Vt8at7Qw69P0yqrknlAN-104" value="&lt;font style=&quot;font-size: 7px;&quot;&gt;GET&lt;/font&gt;" style="text;html=1;align=center;verticalAlign=middle;whiteSpace=wrap;rounded=0;perimeterSpacing=1;" vertex="1" parent="WIyWlLk6GJQsqaUBKTNV-1">
          <mxGeometry x="1080" y="435" width="20" height="10" as="geometry" />
        </mxCell>
        <mxCell id="Vt8at7Qw69P0yqrknlAN-105" value="&lt;p style=&quot;line-height: 20%; font-size: 3px;&quot;&gt;&lt;font style=&quot;font-size: 3px;&quot;&gt;&lt;i&gt;course opinion by id&lt;br&gt;&lt;/i&gt;&lt;/font&gt;&lt;/p&gt;" style="text;html=1;align=center;verticalAlign=middle;whiteSpace=wrap;rounded=0;movable=1;resizable=1;rotatable=1;deletable=1;editable=1;locked=0;connectable=1;" vertex="1" parent="WIyWlLk6GJQsqaUBKTNV-1">
          <mxGeometry x="1081" y="447" width="30" as="geometry" />
        </mxCell>
        <mxCell id="Vt8at7Qw69P0yqrknlAN-106" value="&lt;p style=&quot;line-height: 20%;&quot;&gt;&lt;i&gt;&lt;font style=&quot;font-size: 5px;&quot;&gt;/api/subjects/{code}/opinion&lt;/font&gt;&lt;/i&gt;&lt;/p&gt;" style="text;html=1;align=center;verticalAlign=middle;whiteSpace=wrap;rounded=0;movable=1;resizable=1;rotatable=1;deletable=1;editable=1;locked=0;connectable=1;" vertex="1" parent="WIyWlLk6GJQsqaUBKTNV-1">
          <mxGeometry x="1106" y="440" width="73" as="geometry" />
        </mxCell>
        <mxCell id="Vt8at7Qw69P0yqrknlAN-107" value="" style="shape=flexArrow;endArrow=classic;html=1;rounded=0;endWidth=5.9453032104637344;endSize=1.395402298850575;width=4.137931034482759;movable=1;resizable=1;rotatable=1;deletable=1;editable=1;locked=0;connectable=1;" edge="1" parent="WIyWlLk6GJQsqaUBKTNV-1">
          <mxGeometry width="50" height="50" relative="1" as="geometry">
            <mxPoint x="1173.76" y="477" as="sourcePoint" />
            <mxPoint x="1173.76" y="492" as="targetPoint" />
          </mxGeometry>
        </mxCell>
        <mxCell id="Vt8at7Qw69P0yqrknlAN-108" value="&lt;font style=&quot;font-size: 6px;&quot;&gt;&lt;font style=&quot;font-size: 6px;&quot;&gt;subject code&lt;/font&gt;&lt;br&gt;&lt;/font&gt;" style="ellipse;whiteSpace=wrap;html=1;" vertex="1" parent="WIyWlLk6GJQsqaUBKTNV-1">
          <mxGeometry x="1077" y="590" width="40" height="20" as="geometry" />
        </mxCell>
        <mxCell id="Vt8at7Qw69P0yqrknlAN-109" style="edgeStyle=orthogonalEdgeStyle;rounded=0;orthogonalLoop=1;jettySize=auto;html=1;entryX=0.146;entryY=0.997;entryDx=0;entryDy=0;entryPerimeter=0;" edge="1" parent="WIyWlLk6GJQsqaUBKTNV-1" source="Vt8at7Qw69P0yqrknlAN-108" target="Vt8at7Qw69P0yqrknlAN-102">
          <mxGeometry relative="1" as="geometry" />
        </mxCell>
        <mxCell id="Vt8at7Qw69P0yqrknlAN-110" value="&lt;p style=&quot;line-height: 120%; font-size: 4px;&quot;&gt;&lt;font style=&quot;font-size: 4px;&quot;&gt;opinion of subject of code specified&lt;font style=&quot;font-size: 4px;&quot;&gt;&lt;br&gt;&lt;/font&gt;&lt;/font&gt;&lt;/p&gt;" style="ellipse;whiteSpace=wrap;html=1;fillColor=#60a917;fontColor=#ffffff;strokeColor=#2D7600;" vertex="1" parent="WIyWlLk6GJQsqaUBKTNV-1">
          <mxGeometry x="1137" y="590" width="40" height="20" as="geometry" />
        </mxCell>
        <mxCell id="Vt8at7Qw69P0yqrknlAN-111" value="" style="shape=flexArrow;endArrow=classic;html=1;rounded=0;endWidth=5.9453032104637344;endSize=1.395402298850575;width=4.137931034482759;movable=1;resizable=1;rotatable=1;deletable=1;editable=1;locked=0;connectable=1;" edge="1" parent="WIyWlLk6GJQsqaUBKTNV-1">
          <mxGeometry width="50" height="50" relative="1" as="geometry">
            <mxPoint x="1096.76" y="492" as="sourcePoint" />
            <mxPoint x="1096.76" y="477" as="targetPoint" />
          </mxGeometry>
        </mxCell>
        <mxCell id="Vt8at7Qw69P0yqrknlAN-112" value="&lt;font style=&quot;font-size: 6px;&quot;&gt;Not found&lt;/font&gt;" style="ellipse;whiteSpace=wrap;html=1;fillColor=#fa6800;fontColor=#000000;strokeColor=#C73500;" vertex="1" parent="WIyWlLk6GJQsqaUBKTNV-1">
          <mxGeometry x="1171" y="616" width="40" height="20" as="geometry" />
        </mxCell>
      </root>
    </mxGraphModel>
  </diagram>
</mxfile>
